<svg width="169" height="30" viewBox="0 0 169 30" fill="none" xmlns="http://www.w3.org/2000/svg">
<rect x="54.6805" y="25.0629" width="1" height="8" rx="0.5" transform="rotate(135 54.6805 25.0629)" fill="#44403C"/>
<rect width="1" height="8" rx="0.5" transform="matrix(-0.707107 -0.707107 -0.707107 0.707107 54.6059 5.76605)" fill="#44403C"/>
<rect x="53.2376" y="26.5361" width="1" height="2" rx="0.5" transform="rotate(-136.197 53.2376 26.5361)" fill="#44403C"/>
<rect width="1" height="2" rx="0.5" transform="matrix(-0.721724 0.692181 0.692181 0.721724 53.1629 4.2929)" fill="#44403C"/>
<rect x="43.6805" y="27.3971" width="1" height="7.96929" rx="0.5" transform="rotate(-180 43.6805 27.3971)" fill="#44403C"/>
<rect width="1" height="7.96929" rx="0.5" transform="matrix(-1 5.56363e-08 5.56363e-08 1 43.6059 3.43189)" fill="#44403C"/>
<rect width="1" height="3" rx="0.5" transform="matrix(-7.54979e-08 1 1 7.54979e-08 41.6805 26.4278)" fill="#44403C"/>
<rect x="41.6059" y="4.40118" width="1" height="3" rx="0.5" transform="rotate(-90 41.6059 4.40118)" fill="#44403C"/>
<rect width="1" height="3" rx="0.5" transform="matrix(-0.5 0.866025 0.866025 0.5 32.3299 25.4629)" fill="#44403C"/>
<rect x="32.2552" y="5.36603" width="1" height="3" rx="0.5" transform="rotate(-120 32.2552 5.36603)" fill="#44403C"/>
<rect x="32.6959" y="26.8294" width="1" height="8" rx="0.5" transform="rotate(-150 32.6959 26.8294)" fill="#44403C"/>
<rect width="1" height="8" rx="0.5" transform="matrix(-0.866025 0.5 0.5 0.866025 32.6212 3.99958)" fill="#44403C"/>
<rect width="1" height="8" rx="0.5" transform="matrix(-0.258819 0.965926 0.965926 0.258819 8.95312 8.40954)" fill="#44403C"/>
<rect width="1" height="4" rx="0.5" transform="matrix(0.5 0.866025 0.866025 -0.5 6 10.3368)" fill="#44403C"/>
<rect width="1" height="8" transform="matrix(0.258819 0.965926 0.965926 -0.258819 8.69431 20.4801)" fill="#44403C"/>
<rect x="54.6805" y="7.45449" width="15.091" height="24" rx="7.54551" transform="rotate(90 54.6805 7.45449)" fill="#44403C"/>
<circle cx="21.1805" cy="14.9278" r="7.5" transform="rotate(90 21.1805 14.9278)" fill="#44403C"/>
<g filter="url(#filter0_d_225_21)">
<circle cx="7.52499" cy="21.2671" r="1.5" transform="rotate(90 7.52499 21.2671)" fill="#65A30D"/>
</g>
<path d="M67.672 23L73.984 5.48H77.968L84.472 23H82.048L76.168 7.016L77.32 7.592H74.488L75.712 7.016L70.024 23H67.672ZM71.44 17.768L72.232 15.656H79.792L80.584 17.768H71.44ZM87.6846 23V5.48H91.5246L100.429 20.888H101.197L100.717 21.32V5.48H102.973V23H99.0846L90.1806 7.592H89.4126L89.8926 7.16V23H87.6846ZM106.18 23L112.492 5.48H116.476L122.98 23H120.556L114.676 7.016L115.828 7.592H112.996L114.22 7.016L108.532 23H106.18ZM109.948 17.768L110.74 15.656H118.3L119.092 17.768H109.948ZM126.192 23V5.48H130.032L138.936 20.888H139.704L139.224 21.32V5.48H141.48V23H137.592L128.688 7.592H127.92L128.4 7.16V23H126.192ZM152.248 23.432C150.792 23.432 149.552 23.192 148.528 22.712C147.504 22.232 146.72 21.568 146.176 20.72C145.632 19.872 145.36 18.912 145.36 17.84H147.712C147.712 18.368 147.848 18.896 148.12 19.424C148.408 19.952 148.88 20.392 149.536 20.744C150.208 21.096 151.112 21.272 152.248 21.272C153.304 21.272 154.168 21.12 154.84 20.816C155.512 20.496 156.008 20.088 156.328 19.592C156.648 19.08 156.808 18.528 156.808 17.936C156.808 17.216 156.496 16.624 155.872 16.16C155.248 15.68 154.336 15.384 153.136 15.272L151.192 15.104C149.64 14.976 148.4 14.496 147.472 13.664C146.544 12.832 146.08 11.736 146.08 10.376C146.08 9.304 146.336 8.368 146.848 7.568C147.376 6.768 148.104 6.144 149.032 5.696C149.96 5.232 151.04 5 152.272 5C153.488 5 154.56 5.224 155.488 5.672C156.416 6.12 157.136 6.752 157.648 7.568C158.176 8.368 158.44 9.328 158.44 10.448H156.088C156.088 9.888 155.952 9.36 155.68 8.864C155.424 8.368 155.016 7.96 154.456 7.64C153.896 7.32 153.168 7.16 152.272 7.16C151.408 7.16 150.688 7.312 150.112 7.616C149.552 7.92 149.128 8.32 148.84 8.816C148.568 9.296 148.432 9.816 148.432 10.376C148.432 11.016 148.68 11.584 149.176 12.08C149.672 12.576 150.408 12.864 151.384 12.944L153.328 13.112C154.528 13.208 155.56 13.464 156.424 13.88C157.304 14.28 157.976 14.824 158.44 15.512C158.92 16.184 159.16 16.992 159.16 17.936C159.16 19.008 158.872 19.96 158.296 20.792C157.72 21.624 156.912 22.272 155.872 22.736C154.832 23.2 153.624 23.432 152.248 23.432ZM163.154 23V5.48H165.506V23H163.154Z" fill="#44403C"/>
<defs>
<filter id="filter0_d_225_21" x="0.0249939" y="13.7671" width="15" height="15" filterUnits="userSpaceOnUse" color-interpolation-filters="sRGB">
<feFlood flood-opacity="0" result="BackgroundImageFix"/>
<feColorMatrix in="SourceAlpha" type="matrix" values="0 0 0 0 0 0 0 0 0 0 0 0 0 0 0 0 0 0 127 0" result="hardAlpha"/>
<feMorphology radius="2" operator="dilate" in="SourceAlpha" result="effect1_dropShadow_225_21"/>
<feOffset/>
<feGaussianBlur stdDeviation="2"/>
<feComposite in2="hardAlpha" operator="out"/>
<feColorMatrix type="matrix" values="0 0 0 0 0.396078 0 0 0 0 0.639216 0 0 0 0 0.0509804 0 0 0 0.25 0"/>
<feBlend mode="normal" in2="BackgroundImageFix" result="effect1_dropShadow_225_21"/>
<feBlend mode="normal" in="SourceGraphic" in2="effect1_dropShadow_225_21" result="shape"/>
</filter>
</defs>
</svg>
